<mxfile host="app.diagrams.net" agent="Mozilla/5.0 (Macintosh; Intel Mac OS X 10_15_7) AppleWebKit/537.36 (KHTML, like Gecko) Chrome/130.0.0.0 Safari/537.36" version="24.8.2">
  <diagram name="Page-1" id="EiprSx8gblEN2kFrta_C">
    <mxGraphModel>
      <root>
        <mxCell id="0" />
        <mxCell id="1" parent="0" />
        <mxCell id="2" value="Spring Boot Application" style="whiteSpace=wrap;strokeWidth=2;verticalAlign=top;" vertex="1" parent="1">
          <mxGeometry x="8" y="8" width="497" height="644" as="geometry" />
        </mxCell>
        <mxCell id="3" value="Stripe" style="rounded=1;arcSize=40;strokeWidth=2" vertex="1" parent="2">
          <mxGeometry x="131" y="529" width="72" height="49" as="geometry" />
        </mxCell>
        <mxCell id="4" value="Payment Gateway" style="whiteSpace=wrap;strokeWidth=2;" vertex="1" parent="2">
          <mxGeometry x="96" y="491" width="142" height="124" as="geometry" />
        </mxCell>
        <mxCell id="5" value="Role-based User Auth" style="rounded=1;arcSize=40;strokeWidth=2" vertex="1" parent="2">
          <mxGeometry x="163" y="83" width="182" height="49" as="geometry" />
        </mxCell>
        <mxCell id="6" value="Controllers" style="rounded=1;arcSize=40;strokeWidth=2" vertex="1" parent="2">
          <mxGeometry x="51" y="244" width="109" height="49" as="geometry" />
        </mxCell>
        <mxCell id="7" value="Services" style="rounded=1;arcSize=40;strokeWidth=2" vertex="1" parent="2">
          <mxGeometry x="209" y="244" width="88" height="49" as="geometry" />
        </mxCell>
        <mxCell id="8" value="Repositories" style="rounded=1;arcSize=40;strokeWidth=2" vertex="1" parent="2">
          <mxGeometry x="348" y="244" width="117" height="49" as="geometry" />
        </mxCell>
        <mxCell id="9" value="REST Endpoints" style="rounded=1;arcSize=40;strokeWidth=2" vertex="1" parent="2">
          <mxGeometry x="184" y="368" width="139" height="49" as="geometry" />
        </mxCell>
        <mxCell id="10" value="RabbitMQ" style="rounded=1;arcSize=40;strokeWidth=2" vertex="1" parent="2">
          <mxGeometry x="294" y="529" width="100" height="49" as="geometry" />
        </mxCell>
        <mxCell id="11" value="Messaging Service" style="whiteSpace=wrap;strokeWidth=2;" vertex="1" parent="2">
          <mxGeometry x="259" y="491" width="170" height="124" as="geometry" />
        </mxCell>
        <mxCell id="12" value="User Authentication" style="whiteSpace=wrap;strokeWidth=2;" vertex="1" parent="2">
          <mxGeometry x="43" y="46" width="412" height="124" as="geometry" />
        </mxCell>
        <mxCell id="13" value="" style="curved=1;startArrow=none;endArrow=block;exitX=0.18;exitY=0.99;entryX=0.5;entryY=0;" edge="1" parent="2" source="5" target="6">
          <mxGeometry relative="1" as="geometry">
            <Array as="points">
              <mxPoint x="105" y="169" />
            </Array>
          </mxGeometry>
        </mxCell>
        <mxCell id="14" value="" style="curved=1;startArrow=none;endArrow=block;exitX=0.5;exitY=0.99;entryX=0.51;entryY=0;" edge="1" parent="2" source="5" target="7">
          <mxGeometry relative="1" as="geometry">
            <Array as="points" />
          </mxGeometry>
        </mxCell>
        <mxCell id="15" value="" style="curved=1;startArrow=none;endArrow=block;exitX=0.83;exitY=0.99;entryX=0.5;entryY=0;" edge="1" parent="2" source="5" target="8">
          <mxGeometry relative="1" as="geometry">
            <Array as="points">
              <mxPoint x="406" y="169" />
            </Array>
          </mxGeometry>
        </mxCell>
        <mxCell id="16" value="" style="curved=1;startArrow=none;endArrow=block;exitX=0.5;exitY=0.99;entryX=0.08;entryY=-0.01;" edge="1" parent="2" source="6" target="9">
          <mxGeometry relative="1" as="geometry">
            <Array as="points">
              <mxPoint x="105" y="330" />
            </Array>
          </mxGeometry>
        </mxCell>
        <mxCell id="17" value="" style="curved=1;startArrow=none;endArrow=block;exitX=0.51;exitY=0.99;entryX=0.5;entryY=-0.01;" edge="1" parent="2" source="7" target="9">
          <mxGeometry relative="1" as="geometry">
            <Array as="points">
              <mxPoint x="254" y="330" />
            </Array>
          </mxGeometry>
        </mxCell>
        <mxCell id="18" value="" style="curved=1;startArrow=none;endArrow=block;exitX=0.5;exitY=0.99;entryX=0.93;entryY=-0.01;" edge="1" parent="2" source="8" target="9">
          <mxGeometry relative="1" as="geometry">
            <Array as="points">
              <mxPoint x="406" y="330" />
            </Array>
          </mxGeometry>
        </mxCell>
        <mxCell id="19" value="" style="curved=1;startArrow=none;endArrow=block;exitX=0.76;exitY=0.98;entryX=0.5;entryY=-0.01;" edge="1" parent="2" source="9" target="10">
          <mxGeometry relative="1" as="geometry">
            <Array as="points">
              <mxPoint x="344" y="454" />
            </Array>
          </mxGeometry>
        </mxCell>
        <mxCell id="20" value="" style="curved=1;startArrow=none;endArrow=block;exitX=0.26;exitY=0.98;entryX=0.51;entryY=-0.01;" edge="1" parent="2" source="9" target="3">
          <mxGeometry relative="1" as="geometry">
            <Array as="points">
              <mxPoint x="168" y="454" />
            </Array>
          </mxGeometry>
        </mxCell>
      </root>
    </mxGraphModel>
  </diagram>
</mxfile>
